<?xml version="1.0" encoding="utf-8"?>
<!-- Generator: Adobe Illustrator 16.0.0, SVG Export Plug-In . SVG Version: 6.00 Build 0)  -->
<!DOCTYPE svg PUBLIC "-//W3C//DTD SVG 1.1//EN" "http://www.w3.org/Graphics/SVG/1.1/DTD/svg11.dtd">
<svg version="1.1" id="Layer_1" xmlns="http://www.w3.org/2000/svg" xmlns:xlink="http://www.w3.org/1999/xlink" x="0px" y="0px"
	 width="100px" height="100px" viewBox="0 0 100 100" enable-background="new 0 0 100 100" xml:space="preserve">
<path d="M78.798,44.552L50.484,28.888c-0.301-0.167-0.667-0.167-0.968,0L21.095,44.611c-0.399,0.221-0.598,0.684-0.484,1.125
	s0.512,0.75,0.968,0.75h1.016v1.418c0,0.552,0.448,1,1,1h1.219v1.419c0,0.552,0.448,1,1,1h1.417v17.353h-1.417c-0.552,0-1,0.448-1,1
	v1.419h-1.219c-0.552,0-1,0.448-1,1v2.419c0,0.552,0.448,1,1,1h52.812c0.552,0,1-0.448,1-1v-2.419c0-0.552-0.448-1-1-1h-1.219
	v-1.419c0-0.552-0.448-1-1-1h-1.416V51.324h1.417c0.552,0,1-0.448,1-1v-1.419h1.219c0.552,0,1-0.448,1-1v-1.418h1.016
	c0.006,0,0.013-0.001,0.02,0c0.552,0,1-0.448,1-1C79.442,45.06,79.174,44.695,78.798,44.552z M50,30.906l24.548,13.581H25.452
	L50,30.906z M29.23,51.324h2.838v17.352H29.23V51.324z M34.068,51.324h2.838v17.353h-2.838V51.324z M46.581,51.324v17.353h-2.838
	V51.324H46.581z M56.257,51.324v17.353h-2.838V51.324H56.257z M61.095,68.675h-2.838V51.324h2.838V68.675z M51.419,68.675h-2.838
	V51.324h2.838V68.675z M41.743,68.675h-2.837V51.324h2.837V68.675z M75.405,73.514H24.594v-0.419h1.219h48.374h1.219V73.514z
	 M73.187,71.095H26.813v-0.419h46.374V71.095z M63.095,68.676V51.324h2.838v17.353H63.095z M70.771,68.675h-2.838V51.324h2.838
	V68.675z M73.188,49.324h-1.417h-4.838h-4.838h-4.838h-4.838h-4.838h-4.838h-4.837h-4.838H28.23h-1.417v-0.419h46.375V49.324z
	 M75.406,46.905h-1.219H25.813h-1.219v-0.418h50.812V46.905z"/>
</svg>
