<?xml version="1.0" encoding="utf-8"?>
<!-- Generator: Adobe Illustrator 16.0.0, SVG Export Plug-In . SVG Version: 6.00 Build 0)  -->
<!DOCTYPE svg PUBLIC "-//W3C//DTD SVG 1.1//EN" "http://www.w3.org/Graphics/SVG/1.1/DTD/svg11.dtd">
<svg version="1.1" id="Layer_1" xmlns="http://www.w3.org/2000/svg" xmlns:xlink="http://www.w3.org/1999/xlink" x="0px" y="0px"
	 width="100px" height="100px" viewBox="0 0 100 100" enable-background="new 0 0 100 100" xml:space="preserve">
<polygon fill="none" points="48.215,44.078 48.998,44.078 48.998,43.439 46.616,43.439 46.616,44.078 47.424,44.078 47.424,48.276 
	46.616,48.276 46.616,48.914 49.07,48.914 49.07,48.276 48.215,48.276 "/>
<polygon fill="none" points="49.528,46.127 51.461,44.078 52.153,44.078 52.153,43.439 49.852,43.439 49.852,44.069 50.562,44.069 
	48.575,46.146 48.575,46.2 50.921,48.914 52.234,48.914 52.234,48.276 51.407,48.276 "/>
<polygon fill="none" points="43.532,44.078 44.34,44.078 44.34,48.276 43.532,48.276 43.532,48.914 45.932,48.914 45.932,48.276 
	45.132,48.276 45.132,44.078 45.932,44.078 45.932,43.439 43.532,43.439 "/>
<polygon fill="none" points="38.119,44.986 38.838,44.986 38.838,44.078 40.169,44.078 40.169,48.276 39.306,48.276 39.306,48.914 
	41.823,48.914 41.823,48.276 40.96,48.276 40.96,44.078 42.281,44.078 42.281,44.986 43.009,44.986 43.009,43.439 38.119,43.439 "/>
<path fill="none" d="M43.36,61.569c-0.115,0.043-0.234,0.064-0.351,0.064c-0.405,0-0.786-0.248-0.937-0.65
	c-0.194-0.517,0.068-1.093,0.586-1.287l4.054-1.519h-6.432l2.349,4.603l10.098-4.603h-0.313L43.36,61.569z"/>
<polygon fill="none" points="56.415,48.276 54.293,48.276 54.293,46.478 56.558,46.478 56.558,45.84 54.293,45.84 54.293,44.078 
	56.397,44.078 56.397,44.977 57.125,44.977 57.125,43.439 52.693,43.439 52.693,44.078 53.502,44.078 53.502,48.276 52.693,48.276 
	52.693,48.914 57.152,48.914 57.152,47.35 56.415,47.35 "/>
<polygon fill="none" points="48.215,44.078 48.998,44.078 48.998,43.439 46.616,43.439 46.616,44.078 47.424,44.078 47.424,48.276 
	46.616,48.276 46.616,48.914 49.07,48.914 49.07,48.276 48.215,48.276 "/>
<polygon fill="none" points="49.528,46.127 51.461,44.078 52.153,44.078 52.153,43.439 49.852,43.439 49.852,44.069 50.562,44.069 
	48.575,46.146 48.575,46.2 50.921,48.914 52.234,48.914 52.234,48.276 51.407,48.276 "/>
<path fill="none" d="M43.36,61.569c-0.115,0.043-0.234,0.064-0.351,0.064c-0.405,0-0.786-0.248-0.937-0.65
	c-0.194-0.517,0.068-1.093,0.586-1.287l4.054-1.519h-6.432l2.349,4.603l10.098-4.603h-0.313L43.36,61.569z"/>
<polygon fill="none" points="38.119,44.986 38.838,44.986 38.838,44.078 40.169,44.078 40.169,48.276 39.306,48.276 39.306,48.914 
	41.823,48.914 41.823,48.276 40.96,48.276 40.96,44.078 42.281,44.078 42.281,44.986 43.009,44.986 43.009,43.439 38.119,43.439 "/>
<polygon fill="none" points="56.415,48.276 54.293,48.276 54.293,46.478 56.558,46.478 56.558,45.84 54.293,45.84 54.293,44.078 
	56.397,44.078 56.397,44.977 57.125,44.977 57.125,43.439 52.693,43.439 52.693,44.078 53.502,44.078 53.502,48.276 52.693,48.276 
	52.693,48.914 57.152,48.914 57.152,47.35 56.415,47.35 "/>
<polygon fill="none" points="43.532,44.078 44.34,44.078 44.34,48.276 43.532,48.276 43.532,48.914 45.932,48.914 45.932,48.276 
	45.132,48.276 45.132,44.078 45.932,44.078 45.932,43.439 43.532,43.439 "/>
<polygon fill="none" points="57.754,44.986 58.474,44.986 58.474,44.078 59.804,44.078 59.804,48.276 58.941,48.276 58.941,48.914 
	61.458,48.914 61.458,48.276 60.595,48.276 60.595,44.078 61.917,44.078 61.917,44.986 62.645,44.986 62.645,43.439 57.754,43.439 
	"/>
<path d="M72.382,37.176c0.552,0,1-0.448,1-1v-1c0-0.552-0.448-1-1-1h-44c-0.552,0-1,0.448-1,1v1c0,0.552,0.448,1,1,1
	c1.011,0,1.833,0.823,1.833,1.833c0,1.01-0.822,1.833-1.833,1.833c-0.552,0-1,0.448-1,1v1.501c0,0.552,0.448,1,1,1
	c1.011,0,1.833,0.823,1.833,1.833c0,1.01-0.822,1.833-1.833,1.833c-0.552,0-1,0.448-1,1v1.5c0,0.552,0.448,1,1,1
	c1.011,0,1.833,0.823,1.833,1.833c0,1.01-0.822,1.833-1.833,1.833c-0.552,0-1,0.448-1,1v1c0,0.552,0.448,1,1,1H32.6l0.384,0.8
	c0.239,0.498,0.837,0.708,1.333,0.469c0.694-0.334,1.53-0.04,1.864,0.656c0.161,0.336,0.182,0.715,0.058,1.067
	c-0.124,0.352-0.377,0.635-0.714,0.796c-0.239,0.115-0.423,0.32-0.511,0.57s-0.073,0.525,0.042,0.764l0.55,1.145
	c0.24,0.499,0.836,0.708,1.334,0.469c0.337-0.161,0.715-0.181,1.067-0.058c0.352,0.124,0.635,0.378,0.796,0.715
	c0.333,0.694,0.039,1.53-0.656,1.864c-0.498,0.239-0.708,0.836-0.469,1.334l0.366,0.764c0.172,0.358,0.53,0.568,0.902,0.567
	c0.145,0,0.292-0.031,0.432-0.098l24.658-11.825h6.261h2.084c0.552,0,1-0.448,1-1v-1c0-0.552-0.448-1-1-1
	c-1.011,0-1.833-0.822-1.833-1.833c0-1.011,0.822-1.833,1.833-1.833c0.552,0,1-0.448,1-1v-1.5c0-0.552-0.448-1-1-1
	c-1.011,0-1.833-0.822-1.833-1.833c0-1.011,0.822-1.833,1.833-1.833c0.552,0,1-0.448,1-1v-1.501c0-0.552-0.448-1-1-1
	c-1.011,0-1.833-0.822-1.833-1.833C70.549,37.999,71.371,37.176,72.382,37.176z M42.63,62.78l-2.349-4.603h6.432l-4.054,1.519
	c-0.518,0.194-0.78,0.77-0.586,1.287c0.15,0.402,0.532,0.65,0.937,0.65c0.117,0,0.235-0.021,0.351-0.064l9.055-3.392h0.313
	L42.63,62.78z M67.715,53.343c0,0.552-0.448,1-1,1H34.048c-0.552,0-1-0.448-1-1V39.011c0-0.552,0.448-1,1-1h32.667
	c0.552,0,1,0.448,1,1V53.343z"/>
<polygon fill="none" points="62.645,44.986 62.645,43.439 57.754,43.439 57.754,44.986 58.474,44.986 58.474,44.078 59.804,44.078 
	59.804,48.276 58.941,48.276 58.941,48.914 61.458,48.914 61.458,48.276 60.595,48.276 60.595,44.078 61.917,44.078 61.917,44.986 
	"/>
<polygon fill="none" points="43.532,44.078 44.34,44.078 44.34,48.276 43.532,48.276 43.532,48.914 45.932,48.914 45.932,48.276 
	45.132,48.276 45.132,44.078 45.932,44.078 45.932,43.439 43.532,43.439 "/>
<polygon fill="none" points="49.528,46.127 51.461,44.078 52.153,44.078 52.153,43.439 49.852,43.439 49.852,44.069 50.562,44.069 
	48.575,46.146 48.575,46.2 50.921,48.914 52.234,48.914 52.234,48.276 51.407,48.276 "/>
<polygon fill="none" points="56.415,48.276 54.293,48.276 54.293,46.478 56.558,46.478 56.558,45.84 54.293,45.84 54.293,44.078 
	56.397,44.078 56.397,44.977 57.125,44.977 57.125,43.439 52.693,43.439 52.693,44.078 53.502,44.078 53.502,48.276 52.693,48.276 
	52.693,48.914 57.152,48.914 57.152,47.35 56.415,47.35 "/>
<polygon fill="none" points="48.215,44.078 48.998,44.078 48.998,43.439 46.616,43.439 46.616,44.078 47.424,44.078 47.424,48.276 
	46.616,48.276 46.616,48.914 49.07,48.914 49.07,48.276 48.215,48.276 "/>
<polygon fill="none" points="38.119,44.986 38.838,44.986 38.838,44.078 40.169,44.078 40.169,48.276 39.306,48.276 39.306,48.914 
	41.823,48.914 41.823,48.276 40.96,48.276 40.96,44.078 42.281,44.078 42.281,44.986 43.009,44.986 43.009,43.439 38.119,43.439 "/>
<path d="M65.715,47.604c-0.328,0.586-0.948,0.988-1.667,0.988c-1.057,0-1.917-0.86-1.917-1.917s0.86-1.917,1.917-1.917
	c0.718,0,1.338,0.402,1.667,0.988v-3.383H35.048v2.939c0.345-0.335,0.815-0.544,1.333-0.544c1.057,0,1.917,0.86,1.917,1.917
	s-0.86,1.917-1.917,1.917c-0.519,0-0.988-0.209-1.333-0.544V50h30.667V47.604z M43.009,44.986h-0.728v-0.908H40.96v4.198h0.863
	v0.638h-2.517v-0.638h0.863v-4.198h-1.331v0.908h-0.719v-1.546h4.89V44.986z M45.932,44.078h-0.8v4.198h0.8v0.638h-2.4v-0.638h0.809
	v-4.198h-0.809v-0.638h2.4V44.078z M49.07,48.914h-2.454v-0.638h0.809v-4.198h-0.809v-0.638h2.382v0.638h-0.782v4.198h0.854V48.914z
	 M52.234,48.914h-1.313L48.575,46.2v-0.054l1.987-2.077h-0.71v-0.629h2.301v0.638h-0.692l-1.933,2.05l1.879,2.148h0.827V48.914z
	 M57.152,48.914h-4.459v-0.638h0.809v-4.198h-0.809v-0.638h4.432v1.537h-0.728v-0.899h-2.104v1.762h2.265v0.638h-2.265v1.798h2.121
	V47.35h0.737V48.914z M60.595,44.078v4.198h0.863v0.638h-2.517v-0.638h0.863v-4.198h-1.331v0.908h-0.719v-1.546h4.89v1.546h-0.728
	v-0.908H60.595z"/>
<rect x="35.048" y="40.011" width="30.667" height="0.215"/>
<rect x="35.048" y="52.138" width="30.667" height="0.205"/>
</svg>
